<svg version="1" xmlns="http://www.w3.org/2000/svg" width="666.7" height="666.7" viewBox="0 0 500 500"><path d="M249 .4c-.3.2-5 .6-10.5 1-29.2 1.8-55 14-77 36-24.2 24.3-36.2 53.2-36.3 87.6 0 27.2 7.5 51.7 22.2 72 18.7 25.8 43.5 42.7 73.8 50 8 2 12 2.4 28.3 2.4 21.7 0 30.6-1.5 46.6-8 40.8-16.2 71.2-54.5 77-96.8 1.8-12.3 1.5-30-.5-42.6-9-54-60-99-114.6-101-4 0-7.7-.3-8-.5-.4-.3-1-.3-1 0zM220.5 314l-12.5 1.4c-24.4 2.3-59.8 10.3-89.5 20C55 356.5 20.8 379 7 408.5.7 421.7 0 426.2 0 465.3V500h249.5c199 0 249.5-.3 249.6-1.3 0-.6.2-16.7 0-35.7 0-31.3 0-35.2-2-42.2-8-30.7-36.4-55-88.2-75.2-26.7-10.4-66-22.2-83.8-25l-11.5-2c-10-2-13.3-2.3-21.5-3-3.6-.5-9.2-1-12.5-1.6-7.7-1-49.8-1-59 0z"/></svg>