<?xml version="1.0" standalone="no"?>
<!DOCTYPE svg PUBLIC "-//W3C//DTD SVG 20010904//EN"
 "http://www.w3.org/TR/2001/REC-SVG-20010904/DTD/svg10.dtd">
<svg version="1.0" xmlns="http://www.w3.org/2000/svg"
 width="500.000000pt" height="500.000000pt" viewBox="0 0 500.000000 500.000000"
 preserveAspectRatio="xMidYMid meet">
<metadata>
Created by potrace 1.11, written by Peter Selinger 2001-2013
</metadata>
<g transform="translate(0.000000,500.000000) scale(0.100000,-0.100000)"
fill="#000000" stroke="none">
<path d="M2489 4996 c-2 -2 -49 -6 -104 -10 -292 -18 -549 -139 -770 -360
-242 -243 -362 -532 -363 -876 -1 -272 75 -517 222 -720 187 -258 435 -427
738 -501 80 -20 119 -23 283 -23 217 0 306 15 466 80 407 162 711 545 770 968
17 123 14 300 -6 426 -89 541 -600 991 -1146 1009 -40 1 -76 4 -80 6 -3 3 -8
3 -10 1z"/>
<path d="M2205 1859 c-38 -4 -95 -10 -125 -13 -244 -23 -598 -103 -895 -201
-634 -210 -977 -434 -1116 -730 -61 -131 -67 -176 -68 -567 l-1 -348 2495 0
c1989 0 2495 3 2496 13 0 6 1 167 0 357 0 313 -2 352 -20 422 -80 307 -365
549 -883 752 -267 104 -659 222 -838 251 -19 3 -71 12 -115 20 -99 18 -133 22
-215 30 -36 4 -92 10 -125 15 -77 10 -498 9 -590 -1z"/>
</g>
</svg>
