<svg xmlns="http://www.w3.org/2000/svg" width="352" height="448"><path fill="#fff" d="M203.8 214.8q2 15.7-12.7 25.2t-27.5 1.5q-9.7-4.3-13.3-14.5t-.2-20.5 13-14.5q9-4.5 18.2-3t16 9 6.7 16.8zm27.7-5.3q-3.5-26.8-28.3-41t-49.2-3.3q-15.8 7-25 22.2t-8.8 32.3q1 22.8 19.4 38.8t41.4 14q22.8-2 38-21t12.5-42zM291.3 74q-5-6.8-14-11t-14.6-5.6-17.7-3q-72.8-12-141.5.4-10.8 1.7-16.5 3t-13.8 5.5T60.8 74q7.5 7 19 11.4T98.2 91t22 2.8q57 7.2 112 .2 15.8-2 22.4-3t18-5.4 19-11.6zm14.2 258.8q-2 6.4-4 19t-3.4 21-7 17.6-14.2 14q-21.5 12-47.4 18T179 428t-50.4-5q-11.6-2-20.4-4.4T88.7 412t-18.2-11-13-15.3q-6.3-24-14.3-73l1.6-4 4.5-2.2q56 37 126.8 37t127-37q5 1.5 6 5.8t-1.3 11.2-2 9.3zm45.3-240.3Q344 134.3 323 256.3q-1.3 7.4-6.8 14t-10.8 10-13.6 7.7q-63 31.5-152.6 22-62-6.8-98.4-34.8-3.8-3-6.4-6.6T30 260t-2-8.6-1.6-10-1.4-8.7q-2.3-12.4-6.6-37.4t-7-40.4-6-37T0 78.2q.8-6.5 4.4-12t7.8-9.5 11.3-7.6T35 44t12-5q31.3-11.5 78.3-16 94.7-9 169 13Q333 47.3 348 66.3q4 5 4 12.7t-1.3 13.5z"/></svg>