<?xml version="1.0" encoding="utf-8"?>
<!DOCTYPE svg PUBLIC "-//W3C//DTD SVG 1.1//EN" "http://www.w3.org/Graphics/SVG/1.1/DTD/svg11.dtd">
<svg version="1.1" xmlns="http://www.w3.org/2000/svg" xmlns:xlink="http://www.w3.org/1999/xlink" width="1316" height="1024" viewBox="0 0 1316 1024">
<path fill="#fff" d="M821.248 521.216q0 119.808-50.176 211.968t-141.312 145.408-210.944 52.224q-84.992 0-162.816-32.768t-134.144-89.088-89.088-134.144-32.768-162.816 32.768-162.816 89.088-134.144 134.144-89.088 162.816-32.768q163.84 0 280.576 109.568l-113.664 109.568q-66.56-64.512-166.912-64.512-70.656 0-130.048 34.816t-94.208 96.256-34.816 133.12 34.816 133.12 94.208 96.256 130.048 34.816q47.104 0 87.040-13.312t65.536-32.768 45.056-44.032 27.648-48.128 12.288-41.984h-237.568v-144.384h395.264q7.168 36.864 7.168 69.632zM1316.864 451.584v120.832h-119.808v118.784h-119.808v-118.784h-119.808v-120.832h119.808v-118.784h119.808v118.784h119.808z"></path>
</svg>
