<svg xmlns="http://www.w3.org/2000/svg" width="1316" height="1024" viewBox="0 0 1316 1024"><path d="M821.2 521.2q0 119.8-50.2 212t-141.3 145.4-210.9 52.2q-85 0-162.8-32.8t-134.1-89.1-89.1-134.1-32.8-162.8 32.8-162.8 89.1-134.1 134.1-89.1 162.8-32.8q163.8 0 280.6 109.6l-113.7 109.6q-66.6-64.5-166.9-64.5-70.7 0-130 34.8t-94.2 96.3-34.8 133.1 34.8 133.1 94.2 96.3 130 34.8q47.1 0 87-13.3t65.5-32.8 45.1-44 27.6-48.1 12.3-42h-237.6v-144.4h395.3q7.2 36.9 7.2 69.6zM1316.9 451.6v120.8h-119.8v118.8h-119.8v-118.8h-119.8v-120.8h119.8v-118.8h119.8v118.8h119.8z" fill="#fff"/></svg>